<svg width="23" height="22" viewBox="0 0 23 22" fill="none" xmlns="http://www.w3.org/2000/svg">
<path d="M14.3753 3.66699H19.1663V5.5H18.2083V17.417C18.2082 17.921 18.0201 18.353 17.6449 18.7119C17.2696 19.0706 16.8182 19.25 16.2913 19.25H6.70833C6.18138 19.25 5.7301 19.0708 5.35481 18.7119C4.97955 18.353 4.79142 17.921 4.79134 17.417V5.5H3.83333V3.66699H8.62532V2.75H14.3753V3.66699ZM6.70833 17.417H16.2913V5.5H6.70833V17.417ZM10.5413 7.33301V15.583H8.62532V7.33301H10.5413ZM14.3753 7.33301V15.583H12.4583V7.33301H14.3753Z" fill="#1D1B20"/>
<path d="M14.3753 3.66699H19.1663V5.5H18.2083V17.417C18.2082 17.921 18.0201 18.353 17.6449 18.7119C17.2696 19.0706 16.8182 19.25 16.2913 19.25H6.70833C6.18138 19.25 5.7301 19.0708 5.35481 18.7119C4.97955 18.353 4.79142 17.921 4.79134 17.417V5.5H3.83333V3.66699H8.62532V2.75H14.3753V3.66699ZM6.70833 17.417H16.2913V5.5H6.70833V17.417ZM10.5413 7.33301V15.583H8.62532V7.33301H10.5413ZM14.3753 7.33301V15.583H12.4583V7.33301H14.3753Z" stroke="black"/>
</svg>
