<svg width="17" height="17" viewBox="0 0 17 17" fill="none" xmlns="http://www.w3.org/2000/svg">
<g clip-path="url(#clip0_125_28)">
<path d="M7.79167 2.83335H2.83334C2.45762 2.83335 2.09728 2.98261 1.8316 3.24828C1.56593 3.51396 1.41667 3.87429 1.41667 4.25002V14.1667C1.41667 14.5424 1.56593 14.9027 1.8316 15.1684C2.09728 15.4341 2.45762 15.5834 2.83334 15.5834H12.75C13.1257 15.5834 13.4861 15.4341 13.7517 15.1684C14.0174 14.9027 14.1667 14.5424 14.1667 14.1667V9.20835M13.1042 1.77085C13.386 1.48906 13.7682 1.33075 14.1667 1.33075C14.5652 1.33075 14.9474 1.48906 15.2292 1.77085C15.511 2.05264 15.6693 2.43484 15.6693 2.83335C15.6693 3.23187 15.511 3.61406 15.2292 3.89585L8.5 10.625L5.66667 11.3334L6.375 8.50002L13.1042 1.77085Z" stroke="#1E1E1E" stroke-width="2" stroke-linecap="round" stroke-linejoin="round"/>
</g>
<defs>
<clipPath id="clip0_125_28">
<rect width="17" height="17" fill="white"/>
</clipPath>
</defs>
</svg>
