<svg width="160" height="180" viewBox="0 0 160 180" fill="none" xmlns="http://www.w3.org/2000/svg">
<path d="M77.3692 105.4C86.5457 105.561 93.0342 109.824 96.835 118.188C97.5272 119.791 98.0487 121.449 98.3985 123.161C98.0339 124.951 97.0866 126.372 95.5567 127.424C86.6395 132.409 77.356 133.167 67.7071 129.697C65.0811 128.678 62.8542 127.115 61.0284 125.009C60.5965 123.908 60.5016 122.771 60.7442 121.599C63.1893 112.948 68.7313 107.549 77.3692 105.4ZM77.6534 111.936C72.8961 113.707 69.4381 116.928 67.2803 121.598C67.0675 121.92 67.1151 122.204 67.4229 122.45C75.3924 126.21 83.3495 126.21 91.294 122.45C91.6013 122.204 91.6483 121.92 91.4356 121.598C90.9395 120.51 90.371 119.468 89.7305 118.472C86.9667 113.941 82.9407 111.762 77.6534 111.936Z" fill="#020202"/>
<path d="M57 108C57 115.732 52.0751 122 46 122C39.9249 122 35 115.732 35 108C35 100.268 39.9249 94 46 94C52.0751 94 57 100.268 57 108Z" fill="black"/>
<path d="M124 108.5C124 116.232 119.075 122.5 113 122.5C106.925 122.5 102 116.232 102 108.5C102 100.768 106.925 94.5 113 94.5C119.075 94.5 124 100.768 124 108.5Z" fill="black"/>
<path d="M140 20C151.046 20 160 28.9543 160 40V160C160 171.046 151.046 180 140 180H20C8.95431 180 2.41597e-07 171.046 0 160V40C1.9329e-06 28.9543 8.9543 20 20 20H140ZM10 57V160L10.0127 160.515C10.2719 165.628 14.3721 169.728 19.4854 169.987L20 170H140L140.515 169.987C145.628 169.728 149.728 165.628 149.987 160.515L150 160V57H10ZM141.462 30.1055C141.412 30.0982 141.362 30.0935 141.312 30.0869C141.049 30.0525 140.783 30.0263 140.515 30.0127L141.022 30.0518C141.17 30.0667 141.316 30.0843 141.462 30.1055Z" fill="black"/>
<path d="M21 8C21 3.58172 24.5817 0 29 0V0C33.4183 0 37 3.58172 37 8V34H21V8Z" fill="#A6A5A5"/>
<path d="M121 8C121 3.58172 124.582 0 129 0V0C133.418 0 137 3.58172 137 8V34H121V8Z" fill="#A6A5A5"/>
</svg>
